<svg xmlns="http://www.w3.org/2000/svg" viewBox="0 0 32 32" width="32" height="32"><circle cx="16" cy="16" r="15" fill="#1b4332"/><path d="M16 7c-.5 0-.9.4-.9.9v2.8c-2.2.7-3.8 2.8-3.8 5.2 0 1.9.8 3.5 2 4.6l-2.3 3.2c-.3.4-.2.9.2 1.2.1.1.3.2.5.2.3 0 .5-.1.7-.4l2.1-3c.5.2.9.3 1.5.3s1-.1 1.5-.3l2.1 3c.2.3.4.4.7.4.2 0 .3-.1.5-.2.4-.3.5-.8.2-1.2l-2.3-3.2c1.3-1.1 2-2.7 2-4.6 0-2.4-1.6-4.5-3.8-5.2V7.9c0-.5-.4-.9-.9-.9zm0 5.5c2 0 3.6 1.6 3.6 3.6s-1.6 3.6-3.6 3.6-3.6-1.6-3.6-3.6 1.6-3.6 3.6-3.6z" fill="#fff" opacity=".85"/><circle cx="16" cy="16.1" r="1.8" fill="#6ee7b7"/></svg>